{
    "asset": {
        "generator": "COLLADA2GLTF",
        "version": "2.0"
    },
    "scenes": [
        {
            "nodes": [
                0
            ]
        }
    ],
    "scene": 0,
    "nodes": [
        {
            "children": [
                3,
                1
            ],
            "name": "Y_UP"
        },
        {
            "children": [
                2
            ],
            "name": "bungalow-1"
        },
        {
            "mesh": 0,
            "name": "bungalow-2"
        },
        {
            "matrix": [
                0.9852244853973388,
                0.007601157762110233,
                0.1710993200540543,
                0.0,
                0.08764859288930893,
                0.8359031081199646,
                -0.5418336987495422,
                0.0,
                -0.1471410095691681,
                0.5488244295120239,
                0.8228859305381775,
                0.0,
                -0.10730699449777605,
                0.4673500061035156,
                0.6224889755249023,
                1.0
            ],
            "camera": 0,
            "name": "default_11"
        }
    ],
    "cameras": [
        {
            "perspective": {
                "yfov": 0.6925530433654785,
                "zfar": 40.0,
                "znear": 0.0010000000474974514
            },
            "type": "perspective",
            "name": "default_11"
        }
    ],
    "meshes": [
        {
            "primitives": [
                {
                    "attributes": {
                        "NORMAL": 1,
                        "POSITION": 2
                    },
                    "indices": 0,
                    "mode": 4,
                    "material": 0
                },
                {
                    "attributes": {
                        "NORMAL": 4,
                        "POSITION": 5
                    },
                    "indices": 3,
                    "mode": 4,
                    "material": 1
                },
                {
                    "attributes": {
                        "NORMAL": 7,
                        "POSITION": 8
                    },
                    "indices": 6,
                    "mode": 4,
                    "material": 2
                },
                {
                    "attributes": {
                        "NORMAL": 10,
                        "POSITION": 11
                    },
                    "indices": 9,
                    "mode": 4,
                    "material": 3
                },
                {
                    "attributes": {
                        "NORMAL": 13,
                        "POSITION": 14
                    },
                    "indices": 12,
                    "mode": 4,
                    "material": 4
                },
                {
                    "attributes": {
                        "NORMAL": 16,
                        "POSITION": 17
                    },
                    "indices": 15,
                    "mode": 4,
                    "material": 5
                },
                {
                    "attributes": {
                        "NORMAL": 19,
                        "POSITION": 20
                    },
                    "indices": 18,
                    "mode": 4,
                    "material": 6
                },
                {
                    "attributes": {
                        "NORMAL": 22,
                        "POSITION": 23
                    },
                    "indices": 21,
                    "mode": 4,
                    "material": 7
                }
            ],
            "name": "ID25"
        }
    ],
    "accessors": [
        {
            "bufferView": 0,
            "byteOffset": 0,
            "componentType": 5123,
            "count": 5169,
            "max": [
                3141
            ],
            "min": [
                0
            ],
            "type": "SCALAR"
        },
        {
            "bufferView": 1,
            "byteOffset": 0,
            "componentType": 5126,
            "count": 3142,
            "max": [
                1.0,
                1.0,
                1.0
            ],
            "min": [
                -1.0,
                -1.0,
                -1.0
            ],
            "type": "VEC3"
        },
        {
            "bufferView": 1,
            "byteOffset": 37704,
            "componentType": 5126,
            "count": 3142,
            "max": [
                0.1137469932436943,
                0.13099999725818638,
                0.08628899604082108
            ],
            "min": [
                -0.1137469932436943,
                0.0,
                -0.0782109946012497
            ],
            "type": "VEC3"
        },
        {
            "bufferView": 0,
            "byteOffset": 10338,
            "componentType": 5123,
            "count": 192,
            "max": [
                113
            ],
            "min": [
                0
            ],
            "type": "SCALAR"
        },
        {
            "bufferView": 1,
            "byteOffset": 75408,
            "componentType": 5126,
            "count": 114,
            "max": [
                1.0,
                1.0,
                1.0
            ],
            "min": [
                -1.0,
                -1.0,
                -1.0
            ],
            "type": "VEC3"
        },
        {
            "bufferView": 1,
            "byteOffset": 76776,
            "componentType": 5126,
            "count": 114,
            "max": [
                0.10391899943351746,
                0.003000000026077032,
                0.018543599173426629
            ],
            "min": [
                -0.08453379571437836,
                9.536739176141396e-10,
                -0.08628899604082108
            ],
            "type": "VEC3"
        },
        {
            "bufferView": 0,
            "byteOffset": 10722,
            "componentType": 5123,
            "count": 1923,
            "max": [
                1094
            ],
            "min": [
                0
            ],
            "type": "SCALAR"
        },
        {
            "bufferView": 1,
            "byteOffset": 78144,
            "componentType": 5126,
            "count": 1095,
            "max": [
                1.0,
                1.0,
                1.0
            ],
            "min": [
                -1.0,
                -1.0,
                -1.0
            ],
            "type": "VEC3"
        },
        {
            "bufferView": 1,
            "byteOffset": 91284,
            "componentType": 5126,
            "count": 1095,
            "max": [
                0.10541899502277374,
                0.12800000607967378,
                0.07628899067640305
            ],
            "min": [
                -0.10624699294567108,
                0.0,
                -0.0672542005777359
            ],
            "type": "VEC3"
        },
        {
            "bufferView": 0,
            "byteOffset": 14568,
            "componentType": 5123,
            "count": 276,
            "max": [
                195
            ],
            "min": [
                0
            ],
            "type": "SCALAR"
        },
        {
            "bufferView": 1,
            "byteOffset": 104424,
            "componentType": 5126,
            "count": 196,
            "max": [
                1.0,
                1.0,
                1.0
            ],
            "min": [
                -1.0,
                -0.00008053240162553266,
                -1.0
            ],
            "type": "VEC3"
        },
        {
            "bufferView": 1,
            "byteOffset": 106776,
            "componentType": 5126,
            "count": 196,
            "max": [
                0.10541899502277374,
                0.11749999970197678,
                0.07577799260616303
            ],
            "min": [
                -0.07467449456453324,
                0.0014999998966231945,
                -0.06755419820547104
            ],
            "type": "VEC3"
        },
        {
            "bufferView": 0,
            "byteOffset": 15120,
            "componentType": 5123,
            "count": 36,
            "max": [
                23
            ],
            "min": [
                0
            ],
            "type": "SCALAR"
        },
        {
            "bufferView": 1,
            "byteOffset": 109128,
            "componentType": 5126,
            "count": 24,
            "max": [
                1.0,
                0.0,
                1.0
            ],
            "min": [
                -1.0,
                -1.8141599866794426e-7,
                -1.0
            ],
            "type": "VEC3"
        },
        {
            "bufferView": 1,
            "byteOffset": 109416,
            "componentType": 5126,
            "count": 24,
            "max": [
                0.10541899502277374,
                0.09749999642372132,
                0.07577799260616303
            ],
            "min": [
                0.07797709852457047,
                0.07599999755620957,
                0.05018899962306023
            ],
            "type": "VEC3"
        },
        {
            "bufferView": 0,
            "byteOffset": 15192,
            "componentType": 5123,
            "count": 18,
            "max": [
                11
            ],
            "min": [
                0
            ],
            "type": "SCALAR"
        },
        {
            "bufferView": 1,
            "byteOffset": 109704,
            "componentType": 5126,
            "count": 12,
            "max": [
                1.0,
                0.0,
                0.0010946099646389485
            ],
            "min": [
                -0.9999989867210388,
                0.0,
                -0.0009663889650255442
            ],
            "type": "VEC3"
        },
        {
            "bufferView": 1,
            "byteOffset": 109848,
            "componentType": 5126,
            "count": 12,
            "max": [
                0.07948710024356842,
                0.028680000454187394,
                0.06091499701142311
            ],
            "min": [
                -0.05752519890666008,
                0.0015839999541640282,
                -0.00657969992607832
            ],
            "type": "VEC3"
        },
        {
            "bufferView": 0,
            "byteOffset": 15228,
            "componentType": 5123,
            "count": 12,
            "max": [
                5
            ],
            "min": [
                0
            ],
            "type": "SCALAR"
        },
        {
            "bufferView": 1,
            "byteOffset": 109992,
            "componentType": 5126,
            "count": 6,
            "max": [
                0.0,
                1.0,
                -0.0
            ],
            "min": [
                0.0,
                1.0,
                -0.0
            ],
            "type": "VEC3"
        },
        {
            "bufferView": 1,
            "byteOffset": 110064,
            "componentType": 5126,
            "count": 6,
            "max": [
                0.1024179905653,
                0.0020000000949949028,
                -0.02271099947392941
            ],
            "min": [
                0.019590100273489953,
                0.0020000000949949028,
                -0.08479049801826477
            ],
            "type": "VEC3"
        },
        {
            "bufferView": 0,
            "byteOffset": 15252,
            "componentType": 5123,
            "count": 36,
            "max": [
                24
            ],
            "min": [
                0
            ],
            "type": "SCALAR"
        },
        {
            "bufferView": 1,
            "byteOffset": 110136,
            "componentType": 5126,
            "count": 25,
            "max": [
                1.0,
                1.0,
                1.0
            ],
            "min": [
                -1.0,
                -1.0,
                -1.0
            ],
            "type": "VEC3"
        },
        {
            "bufferView": 1,
            "byteOffset": 110436,
            "componentType": 5126,
            "count": 25,
            "max": [
                0.13245800137519837,
                0.0,
                0.10075999796390534
            ],
            "min": [
                -0.12569499015808106,
                -0.02199999988079071,
                -0.09380640089511872
            ],
            "type": "VEC3"
        }
    ],
    "materials": [
        {
            "pbrMetallicRoughness": {
                "baseColorFactor": [
                    1.0,
                    1.0,
                    1.0,
                    1.0
                ],
                "metallicFactor": 0.0
            },
            "name": "ID14"
        },
        {
            "pbrMetallicRoughness": {
                "baseColorFactor": [
                    0.929412007331848,
                    0.7607839703559876,
                    0.6392160058021545,
                    1.0
                ],
                "metallicFactor": 0.0
            },
            "name": "ID10"
        },
        {
            "pbrMetallicRoughness": {
                "baseColorFactor": [
                    0.8549019694328308,
                    0.8039219975471497,
                    0.7137249708175659,
                    1.0
                ],
                "metallicFactor": 0.0
            },
            "name": "ID6"
        },
        {
            "pbrMetallicRoughness": {
                "baseColorFactor": [
                    0.3019610047340393,
                    0.47450998425483706,
                    0.3725489974021912,
                    1.0
                ],
                "metallicFactor": 0.0
            },
            "name": "ID8"
        },
        {
            "pbrMetallicRoughness": {
                "baseColorFactor": [
                    0.6392160058021545,
                    0.5254899859428406,
                    0.3215689957141876,
                    1.0
                ],
                "metallicFactor": 0.0
            },
            "name": "ID4"
        },
        {
            "pbrMetallicRoughness": {
                "baseColorFactor": [
                    0.3098039925098419,
                    0.1529410034418106,
                    0.0,
                    1.0
                ],
                "metallicFactor": 0.0
            },
            "name": "ID12"
        },
        {
            "pbrMetallicRoughness": {
                "baseColorFactor": [
                    0.24705900251865388,
                    0.2784309983253479,
                    0.2862749993801117,
                    1.0
                ],
                "metallicFactor": 0.0
            },
            "name": "ID2"
        },
        {
            "pbrMetallicRoughness": {
                "baseColorFactor": [
                    0.784313976764679,
                    0.784313976764679,
                    0.784313976764679,
                    1.0
                ],
                "metallicFactor": 0.0
            },
            "name": "ID16"
        }
    ],
    "bufferViews": [
        {
            "buffer": 0,
            "byteOffset": 110736,
            "byteLength": 15324,
            "target": 34963
        },
        {
            "buffer": 0,
            "byteOffset": 0,
            "byteLength": 110736,
            "byteStride": 12,
            "target": 34962
        }
    ],
    "buffers": [
        {
            "byteLength": 126060,
            "uri": "data:application/octet-stream;base64,"
        }
    ]
}
